<svg id="Layer_1" data-name="Layer 1" xmlns="http://www.w3.org/2000/svg" viewBox="0 0 211.3 179.04"><defs><style>.cls-1{fill:#aadb1e;}.cls-1,.cls-2,.cls-4,.cls-8{stroke:#231f20;stroke-miterlimit:10;}.cls-1,.cls-2,.cls-4{stroke-width:4.06px;}.cls-2{fill:#ff4500;}.cls-3{fill:#df3e00;}.cls-4,.cls-7,.cls-8{fill:#f70000;}.cls-5{fill:#cd0000;}.cls-6{fill:#77c900;}.cls-8{stroke-width:1.94px;}</style></defs><path class="cls-1" d="M183.29,66.07H195l-.45,27.36-11.24.89a21.83,21.83,0,0,0,2.61,11.73,20.86,20.86,0,0,0,9.56,8.87v22.46c-1.34,0-2.34.07-3,.07a35.37,35.37,0,0,1-25.84-11.33,37.43,37.43,0,0,1-3.36-4.34c-5.1-8-3.24-20.17-2.81-22.73C160.56,79,183.29,66.07,183.29,66.07Z"/><path class="cls-1" d="M176.37,31a12.66,12.66,0,0,1,9.23,3.82A12.42,12.42,0,0,1,189.46,44a12,12,0,0,1-3.84,9,12.83,12.83,0,0,1-9.25,3.69A12.67,12.67,0,0,1,167.09,53a12.27,12.27,0,0,1-3.64-9.14,12.39,12.39,0,0,1,3.78-9.14A12.52,12.52,0,0,1,176.37,31Z"/><path class="cls-2" d="M86.64,66.14v71.31h-26V66.14ZM73.71,34.31a12.55,12.55,0,0,1,9.14,3.83,12.33,12.33,0,0,1,3.86,9,12.26,12.26,0,0,1-3.65,9.15,12.77,12.77,0,0,1-9.35,3.58,12.77,12.77,0,0,1-9.35-3.58,12.22,12.22,0,0,1-3.65-9.15,12.3,12.3,0,0,1,3.86-9A12.55,12.55,0,0,1,73.71,34.31Z"/><path class="cls-3" d="M84.59,68.24v67.3H62.68Q73.65,101.9,84.59,68.24Z"/><path class="cls-4" d="M198.52,95l-56.88-.21a4.38,4.38,0,0,0-.66.55c-1.37,1.41-2.23,4.19-2.61,8.34q-1.8,20.67-15.57,29.18-7.3,4.43-20.72,4.43h-.77v.13H42.42q-15.43,0-24.06-9.26T9.74,102.47c0-14.4-.34-21.06,0-49.68.07-5.51.06-10,0-12.94l30-.11c-.18,11.15-.32,25.88-.22,43.5.07,11.68.26,21.47,6.71,26,3.26,2.28,6.76,2.28,10.33,2.29,39.43.09,47.8,1.37,52-5.21a20.09,20.09,0,0,0,3.1-9.4q.55-11,2-15.38a22.27,22.27,0,0,1,5.8-8.8q7.56-7.58,20.92-7.64h0L199,65Q198.74,80,198.52,95Z"/><path class="cls-4" d="M25.38,5.46a12.63,12.63,0,0,1,9.23,3.83,12.39,12.39,0,0,1,3.86,9.11,12,12,0,0,1-3.84,9,12.83,12.83,0,0,1-9.25,3.69,12.67,12.67,0,0,1-9.28-3.58,12.27,12.27,0,0,1-3.64-9.14A12.39,12.39,0,0,1,16.24,9.2,12.52,12.52,0,0,1,25.38,5.46Z"/><path class="cls-5" d="M32.9,10.46l.26.22.1.1A12.94,12.94,0,0,1,36,14.84a10.08,10.08,0,0,1,.61,3.64,11.25,11.25,0,0,1-1.28,5.31,10.31,10.31,0,0,1-1.83,2.43,9.88,9.88,0,0,1-1.9,1.46,9.55,9.55,0,0,1-2.67,1.05,11.79,11.79,0,0,1-3.88.29Q29,19.74,32.9,10.46Z"/><path class="cls-3" d="M80.89,39.11l.26.22.1.1A12.94,12.94,0,0,1,84,43.49a9.8,9.8,0,0,1,.6,3.64,11.29,11.29,0,0,1-1.27,5.31,10.31,10.31,0,0,1-1.83,2.43,9.88,9.88,0,0,1-1.9,1.46,9.55,9.55,0,0,1-2.67,1.05,11.83,11.83,0,0,1-3.89.29Z"/><path class="cls-6" d="M183.79,35.88c.06.06.16.13.26.23l.1.09a13.16,13.16,0,0,1,2.74,4.06,10.08,10.08,0,0,1,.6,3.64,11.38,11.38,0,0,1-1.27,5.31,10.33,10.33,0,0,1-1.84,2.44,9.81,9.81,0,0,1-1.9,1.46,9.33,9.33,0,0,1-2.66,1Q181.8,45,183.79,35.88Z"/><path class="cls-6" d="M181.25,97a24.52,24.52,0,0,0,12.09,19l.21,19.4a34.46,34.46,0,0,1-4.07-.08,31.61,31.61,0,0,1-7.15-1.45,33.92,33.92,0,0,1-7-3.35,36.34,36.34,0,0,1-8-6.7c-.17-.2-.35-.43-.53-.66s-.51-.71-.72-1L171.87,97Z"/><path class="cls-5" d="M196.92,67.05q-.19,13-.37,25.91l-24.32,0-31.17-.07a9.84,9.84,0,0,0-2,1.77c-2.41,2.79-2.31,6-2.89,10.61a50.33,50.33,0,0,1-1.82,9,33,33,0,0,1-5.84,11,25.38,25.38,0,0,1-12.22,8.41,33.43,33.43,0,0,1-8.3,1.5,59.43,59.43,0,0,1-8.3.22H78.11l20.22-22.15c.8-.09,1.92-.26,3.26-.55a17.84,17.84,0,0,0,3.59-1,10.69,10.69,0,0,0,3.95-2.7,14.86,14.86,0,0,0,1.66-2.63,25.7,25.7,0,0,0,2.36-6,44.67,44.67,0,0,0,.91-7.82c.23-3.45.08-3.46.32-5.14a24.58,24.58,0,0,1,1.82-6.86,20,20,0,0,1,6-7.39c7-5.69,15.69-5.92,18.43-5.9q26.82-.06,53.64-.12Z"/><path class="cls-7" d="M196.92,67.05q-.19,13-.37,25.91l-24.32,0,22-25.85Z"/><path class="cls-5" d="M11.82,41.87,24,41.81l12.2,0L14.1,67.69c-.83.92-1.65,1.85-2.47,2.78Q11.72,56.16,11.82,41.87Z"/><polygon class="cls-8" points="21.82 149.1 25.8 157.16 34.69 158.45 28.25 164.72 29.77 173.58 21.82 169.4 13.87 173.58 15.39 164.72 8.95 158.45 17.84 157.16 21.82 149.1"/><path class="cls-5" d="M28.18,158.45l4.6.67-5.43,5.29,1.28,7.47-6.71-3.53-6.7,3.53Z"/><polygon class="cls-8" points="63.73 149.1 67.71 157.16 76.6 158.45 70.17 164.72 71.69 173.58 63.73 169.4 55.78 173.58 57.3 164.72 50.87 158.45 59.76 157.16 63.73 149.1"/><path class="cls-5" d="M70.1,158.45l4.59.67q-2.72,2.64-5.42,5.29l1.28,7.47-6.71-3.53-6.71,3.53Z"/><polygon class="cls-8" points="105.65 149.1 109.63 157.16 118.52 158.45 112.08 164.72 113.6 173.58 105.65 169.4 97.7 173.58 99.22 164.72 92.78 158.45 101.67 157.16 105.65 149.1"/><path class="cls-5" d="M112,158.45l4.6.67-5.43,5.29,1.28,7.47-6.71-3.53L99,171.88Z"/><polygon class="cls-8" points="147.56 149.1 151.54 157.16 160.43 158.45 154 164.72 155.51 173.58 147.56 169.4 139.61 173.58 141.13 164.72 134.69 158.45 143.59 157.16 147.56 149.1"/><path class="cls-5" d="M153.93,158.45l4.59.67-5.43,5.29,1.28,7.47-6.7-3.53L141,171.88Z"/><polygon class="cls-8" points="189.48 149.1 193.45 157.16 202.34 158.45 195.91 164.72 197.43 173.58 189.48 169.4 181.52 173.58 183.04 164.72 176.61 158.45 185.5 157.16 189.48 149.1"/><path class="cls-5" d="M195.84,158.45l4.59.67L195,164.41l1.28,7.47-6.71-3.53-6.71,3.53Z"/></svg>