<svg id="Layer_1" data-name="Layer 1" xmlns="http://www.w3.org/2000/svg" viewBox="0 0 211.3 179.04"><defs><style>.cls-1{fill:#ff4500;}.cls-1,.cls-2,.cls-3,.cls-4{stroke:#231f20;stroke-miterlimit:10;}.cls-1,.cls-2,.cls-3{stroke-width:4px;}.cls-2{fill:#aadb1e;}.cls-3,.cls-4{fill:#f70000;}.cls-4{stroke-width:1.94px;}.cls-5{fill:#cd0000;}</style></defs><path class="cls-1" d="M85.25,63.76v69.32h-26V63.76ZM72.31,32.82a12.75,12.75,0,0,1,9.15,3.72,11.82,11.82,0,0,1,3.85,8.8,11.74,11.74,0,0,1-3.65,8.9,13,13,0,0,1-9.35,3.47A13,13,0,0,1,63,54.24a12.31,12.31,0,0,1,.21-17.7A12.72,12.72,0,0,1,72.31,32.82Z"/><path class="cls-2" d="M181.9,63.73h11.68l-.45,26.61-11.23.86a20.41,20.41,0,0,0,12.17,20v21.83c-1.35,0-2.34.06-3,.06a35.31,35.31,0,0,1-16.66-4.1,34.29,34.29,0,0,1-9.18-6.91,35.52,35.52,0,0,1-3.37-4.21c-5.1-7.78-3.24-19.62-2.81-22.1C159.17,76.26,181.9,63.73,181.9,63.73Z"/><path class="cls-3" d="M201.06,54.55a119.88,119.88,0,0,1-3.21,22.72,118.72,118.72,0,0,1-4.27,13.93A126.27,126.27,0,0,1,174.06,94a127.9,127.9,0,0,1-33.81-2.34,6,6,0,0,0-.66.54q-2.06,2.05-2.61,8.11-1.8,20.08-15.57,28.36-7.3,4.32-20.72,4.31h-.77v.13H41q-15.44,0-24.05-9t-8.62-25c.56-15.43.61-31.55,0-48.3q-.27-7.24-.68-14.29a64.61,64.61,0,0,0,8,1.77,66.91,66.91,0,0,0,20.86-.09c-.78,7.51-1.38,15.42-1.74,23.71-.51,12-.45,23.28,0,33.75a10.78,10.78,0,0,0,3.87,7.72,10.3,10.3,0,0,0,6.14,2.3v-.19H97.07v0h1.18c4.18,0,7.15-.87,8.94-2.61S110,98,110.28,93.68q.56-10.64,2-15a21.61,21.61,0,0,1,5.8-8.55q7.56-7.37,20.92-7.43h0c8.41-.21,15.47-.57,20.72-.9,10.44-.65,15.79-1,22.19-2.14A116.33,116.33,0,0,0,201.06,54.55Z"/><path class="cls-2" d="M175,29.66a12.82,12.82,0,0,1,9.22,3.72,11.89,11.89,0,0,1,3.86,8.86A11.51,11.51,0,0,1,184.23,51,13.07,13.07,0,0,1,175,54.55a12.87,12.87,0,0,1-9.28-3.48,11.78,11.78,0,0,1-3.64-8.89,11.86,11.86,0,0,1,3.77-8.88A12.7,12.7,0,0,1,175,29.66Z"/><path class="cls-3" d="M24,4.77a12.82,12.82,0,0,1,9.22,3.72,11.89,11.89,0,0,1,3.86,8.85,11.52,11.52,0,0,1-3.83,8.73A13.07,13.07,0,0,1,24,29.66a12.84,12.84,0,0,1-9.28-3.49,11.74,11.74,0,0,1-3.64-8.88,11.9,11.9,0,0,1,3.77-8.88A12.7,12.7,0,0,1,24,4.77Z"/><polygon class="cls-4" points="21.82 142.84 25.8 150.9 34.69 152.19 28.25 158.46 29.77 167.32 21.82 163.14 13.87 167.32 15.39 158.46 8.95 152.19 17.84 150.9 21.82 142.84"/><path class="cls-5" d="M28.18,152.19l4.6.67-5.43,5.29,1.28,7.47-6.71-3.53-6.7,3.53Z"/><polygon class="cls-4" points="63.73 142.84 67.71 150.9 76.6 152.19 70.17 158.46 71.69 167.32 63.73 163.14 55.78 167.32 57.3 158.46 50.87 152.19 59.76 150.9 63.73 142.84"/><path class="cls-5" d="M70.1,152.19l4.59.67-5.42,5.29,1.28,7.47-6.71-3.53-6.71,3.53Z"/><polygon class="cls-4" points="105.65 142.84 109.63 150.9 118.52 152.19 112.08 158.46 113.6 167.32 105.65 163.14 97.7 167.32 99.22 158.46 92.78 152.19 101.67 150.9 105.65 142.84"/><path class="cls-5" d="M112,152.19l4.6.67-5.43,5.29,1.28,7.47-6.71-3.53L99,165.62Z"/><polygon class="cls-4" points="147.56 142.84 151.54 150.9 160.43 152.19 154 158.46 155.51 167.32 147.56 163.14 139.61 167.32 141.13 158.46 134.69 152.19 143.59 150.9 147.56 142.84"/><path class="cls-5" d="M153.93,152.19l4.59.67-5.43,5.29,1.28,7.47-6.7-3.53L141,165.62Z"/><polygon class="cls-4" points="189.48 142.84 193.45 150.9 202.34 152.19 195.91 158.46 197.43 167.32 189.48 163.14 181.52 167.32 183.04 158.46 176.61 152.19 185.5 150.9 189.48 142.84"/><path class="cls-5" d="M195.84,152.19l4.59.67L195,158.15l1.28,7.47-6.71-3.53-6.71,3.53Z"/></svg>