<svg id="Layer_1" data-name="Layer 1" xmlns="http://www.w3.org/2000/svg" viewBox="0 0 545.14 209.25"><defs><style>.cls-1,.cls-5{fill:#aadb1e;}.cls-1,.cls-14,.cls-2,.cls-4,.cls-6,.cls-7,.cls-8,.cls-9{stroke:#231f20;stroke-miterlimit:10;}.cls-1,.cls-2,.cls-4,.cls-7{stroke-width:4.06px;}.cls-2,.cls-9{fill:#ff4500;}.cls-3{fill:#df3e00;}.cls-13,.cls-4{fill:#f70000;}.cls-6{fill:none;stroke-width:3.16px;}.cls-7,.cls-8{fill:#ffea04;}.cls-8,.cls-9{stroke-width:4px;}.cls-10{fill:#ffcb0a;}.cls-11{fill:#77c900;}.cls-12{fill:#cd0000;}.cls-14{fill:#ff1500;stroke-width:1.89px;}</style></defs><path class="cls-1" d="M520.31,81.06H532q-.22,13.68-.44,27.36l-11.24.89A21.72,21.72,0,0,0,522.92,121a20.9,20.9,0,0,0,9.56,8.88v22.45c-1.35,0-2.34.07-3,.07a35.37,35.37,0,0,1-25.84-11.33,37.86,37.86,0,0,1-3.36-4.33c-5.11-8-3.24-20.18-2.82-22.74C497.58,93.94,520.31,81.06,520.31,81.06Z"/><path class="cls-1" d="M513.39,46a12.59,12.59,0,0,1,9.22,3.83A12.35,12.35,0,0,1,526.47,59a12,12,0,0,1-3.83,9,12.85,12.85,0,0,1-9.25,3.69A12.67,12.67,0,0,1,504.11,68a12.27,12.27,0,0,1-3.64-9.14A12.84,12.84,0,0,1,513.39,46Z"/><path class="cls-2" d="M423.66,81.13v71.31h-26V81.13ZM410.73,49.31a12.54,12.54,0,0,1,9.14,3.82,12.9,12.9,0,0,1,.21,18.2,14,14,0,0,1-18.71,0,12.9,12.9,0,0,1,.21-18.2A12.56,12.56,0,0,1,410.73,49.31Z"/><path class="cls-3" d="M421.61,83.23v67.31H399.7Q410.65,116.88,421.61,83.23Z"/><path class="cls-4" d="M535.54,110l-56.88-.21a4.44,4.44,0,0,0-.66.56c-1.37,1.41-2.23,4.18-2.61,8.33q-1.8,20.67-15.57,29.18-7.31,4.43-20.72,4.44h-.77v.12H379.44q-15.44,0-24.06-9.26t-8.62-25.72c0-14.4-.34-21.06,0-49.68.06-5.51.06-10,.05-12.94l29.94-.1c-.17,11.14-.31,25.87-.21,43.5.07,11.67.25,21.47,6.71,26,3.25,2.29,6.76,2.28,10.33,2.29,39.42.09,47.8,1.37,52-5.21a20.2,20.2,0,0,0,3.1-9.4q.56-10.95,2-15.38a22.24,22.24,0,0,1,5.8-8.79q7.56-7.58,20.92-7.65h0L536,80Q535.76,95,535.54,110Z"/><path class="cls-4" d="M362.4,20.45a12.63,12.63,0,0,1,9.22,3.83,12.36,12.36,0,0,1,3.86,9.11,12,12,0,0,1-3.83,9,12.86,12.86,0,0,1-9.25,3.7,12.68,12.68,0,0,1-9.28-3.59,12.26,12.26,0,0,1-3.64-9.14A12.85,12.85,0,0,1,362.4,20.45Z"/><rect class="cls-5" x="183.82" y="109.59" width="24.59" height="8.62"/><line class="cls-6" x1="193.26" y1="119.84" x2="240.26" y2="119.84"/><path class="cls-1" d="M194.87,119.64l2.65,0,2.66,0H239.6c.19-2.29.28-4,.28-5q0-15.45-10.25-26a34,34,0,0,0-25.35-10.55,35,35,0,0,0-26,10.8,36.33,36.33,0,0,0-10.61,26.47q0,15.73,10.5,26.39a35,35,0,0,0,25.94,10.65,35.79,35.79,0,0,0,23-8.36l-14.81-18.31q-3.61,4-7.51,4a9,9,0,0,1-3.59-.71,9.7,9.7,0,0,1-4.16-3.58A12.13,12.13,0,0,1,194.87,119.64Zm6.47-19.83a9.93,9.93,0,0,1,3.71-.72,8.59,8.59,0,0,1,5.28,1.54,9.11,9.11,0,0,1,3.41,6.4H195.29C195.52,106.24,197,101.58,201.34,99.81Z"/><path class="cls-7" d="M279.51,81.13v71.31h-26V81.13ZM266.58,49.31a12.54,12.54,0,0,1,9.14,3.82,12.9,12.9,0,0,1,.21,18.2,14,14,0,0,1-18.7,0,12.9,12.9,0,0,1,.21-18.2A12.54,12.54,0,0,1,266.58,49.31Z"/><path class="cls-4" d="M333.65,80.08c-.88-.12-1.7-.22-2.47-.29-1.17-.1-2.21-.16-3.13-.16q-13.69,0-21.9,9.19T298,113.46v39h26V118.61q0-11.14,7.09-11.15a8,8,0,0,1,2.61.48A13.74,13.74,0,0,1,336,109V80.42C335.16,80.29,334.39,80.17,333.65,80.08Z"/><line class="cls-6" x1="193.26" y1="119.32" x2="240.26" y2="119.32"/><path class="cls-8" d="M59,84v67.65H30.8V84H9.17V56.76H80.58V84Z"/><path class="cls-9" d="M118.2,56.76v29Q124.8,81,131.41,81q10,0,15.89,7.23t5.87,19.54v43.94h-26V115q0-4.45-.94-6c-.63-1-1.84-1.53-3.65-1.53q-4.38,0-4.38,6.46v37.69h-26V56.76Z"/><path class="cls-3" d="M135.08,83.25c1.62.32,6.49,1.46,9.5,4.76A28.3,28.3,0,0,1,148,93c.26.47.67,1.22,1.08,2.15a24.87,24.87,0,0,1,1.82,8.14,62.07,62.07,0,0,1,.26,6.86c-.09,3.63-.14,9,.06,16.66L151.3,150H129V115.39a23.31,23.31,0,0,0,0-2.62,11.7,11.7,0,0,0-.36-3.21c-.77-2.2-3.37-3.79-5.87-3.94a6.1,6.1,0,0,0-3.86,1,6.47,6.47,0,0,0-2.38,3.64,8.69,8.69,0,0,0-.15,4.58q-.07,17.42-.16,34.84l-21.84,0c3.51-5.4,8.71-13.78,14.36-24.55,3.93-7.51,5.15-10.6,8.29-16.24A152.46,152.46,0,0,1,135.08,83.25Z"/><path class="cls-10" d="M56.89,82q0,33.94.1,67.88H32.72q10.58-31.35,23-63.94,5.25-13.74,10.59-27.08h12.3q0,11.58,0,23.15Z"/><path class="cls-11" d="M237.72,117.66A31.16,31.16,0,0,0,238,114a32.47,32.47,0,0,0-3.11-14.55,33.49,33.49,0,0,0-6.18-8.79c-.39-.41-.72-.73-.95-1q-4.11,3-8.28,6.09-3.18,2.39-6.27,4.76a10.71,10.71,0,0,1,1.54,2.53,12.48,12.48,0,0,1,.87,3.25,18.29,18.29,0,0,1,.22,2.73l-14.11,0q-6.21,4.68-12.58,9.39-8.31,6.14-16.52,12a43.43,43.43,0,0,0,4.3,6.83,36,36,0,0,0,3.53,4.06,31.18,31.18,0,0,0,9.28,6.11,35.11,35.11,0,0,0,15.55,3,34.76,34.76,0,0,0,9.4-1.81,35.43,35.43,0,0,0,9.5-4.92l-12.11-15a10.64,10.64,0,0,1-4,2.45,11,11,0,0,1-7.44-.2,11.78,11.78,0,0,1-5.34-4.34,15,15,0,0,1-2.77-9.16Z"/><path class="cls-10" d="M277.39,83.2v67.3H255.48Q266.45,116.85,277.39,83.2Z"/><path class="cls-10" d="M273.88,54.19c.09.08.22.19.36.33a13.37,13.37,0,0,1,1.4,1.64A10.61,10.61,0,0,1,277,58.58a9.75,9.75,0,0,1,.6,3.64,11.43,11.43,0,0,1-1.27,5.31A10,10,0,0,1,274.47,70a9.65,9.65,0,0,1-1.9,1.46,10.49,10.49,0,0,1-2.73,1.1,11.65,11.65,0,0,1-3.44.32Q270.14,63.51,273.88,54.19Z"/><path class="cls-12" d="M369.92,25.45c.07.06.16.13.26.23l.1.09A12.94,12.94,0,0,1,373,29.83a9.87,9.87,0,0,1,.6,3.65,11.24,11.24,0,0,1-1.27,5.3,10.66,10.66,0,0,1-1.83,2.44,10.34,10.34,0,0,1-1.9,1.46,9.77,9.77,0,0,1-2.67,1,11.83,11.83,0,0,1-3.89.29Z"/><path class="cls-3" d="M417.91,54.1c.06.06.16.13.26.23l.1.09A13.16,13.16,0,0,1,421,58.48a10.09,10.09,0,0,1,.6,3.65,11.37,11.37,0,0,1-1.27,5.3,10.33,10.33,0,0,1-1.84,2.44,9.33,9.33,0,0,1-4.56,2.5,11.88,11.88,0,0,1-3.89.29Z"/><path class="cls-11" d="M520.8,50.88a2.94,2.94,0,0,1,.27.22l.1.1a13.06,13.06,0,0,1,2.74,4,10.09,10.09,0,0,1,.6,3.65,11.32,11.32,0,0,1-1.27,5.3,10.67,10.67,0,0,1-1.84,2.44,9.69,9.69,0,0,1-1.9,1.46,9.49,9.49,0,0,1-2.67,1Q518.82,60,520.8,50.88Z"/><path class="cls-11" d="M518.26,112a24.6,24.6,0,0,0,12.1,19l.21,19.39a30.61,30.61,0,0,1-4.07-.08,31.61,31.61,0,0,1-7.15-1.45,33.33,33.33,0,0,1-7.05-3.35,36.51,36.51,0,0,1-8-6.69c-.18-.21-.35-.43-.53-.67s-.51-.71-.72-1L508.89,112Z"/><path class="cls-12" d="M328.5,81.66c-.38,1-11.54,32.38-11.91,33.44S304.42,149.23,304,150.41H322v-31.8a15.36,15.36,0,0,1,.06-2.56c.17-1.56.82-7.49,5.21-9.75a9.4,9.4,0,0,1,6.73-.41V82.15c-.93-.16-1.95-.3-3.05-.39C330.05,81.69,329.25,81.66,328.5,81.66Z"/><path class="cls-12" d="M533.94,82.05q-.2,13-.37,25.91l-24.32,0-31.17-.07a9.84,9.84,0,0,0-2,1.77c-2.41,2.79-2.31,6-2.89,10.61a50.33,50.33,0,0,1-1.82,9.05,33,33,0,0,1-5.84,11,25.38,25.38,0,0,1-12.22,8.41,33.43,33.43,0,0,1-8.3,1.5,59.43,59.43,0,0,1-8.3.22H415.13l20.22-22.15c.8-.09,1.92-.26,3.26-.55a17.84,17.84,0,0,0,3.59-1,10.69,10.69,0,0,0,3.95-2.7,14.86,14.86,0,0,0,1.66-2.63,25.7,25.7,0,0,0,2.36-6,44.67,44.67,0,0,0,.91-7.82c.23-3.45.08-3.46.32-5.14a24.58,24.58,0,0,1,1.82-6.86,20,20,0,0,1,6-7.39c6.95-5.69,15.69-5.92,18.43-5.9q26.82-.06,53.64-.12Z"/><path class="cls-13" d="M533.94,82.05q-.2,13-.37,25.91l-24.32,0,22-25.85Z"/><path class="cls-12" d="M348.84,56.86l12.16,0,12.2,0-22.09,25.9-2.47,2.78Q348.75,71.17,348.84,56.86Z"/><polygon class="cls-14" points="184.92 164.68 188.79 172.52 197.45 173.78 191.18 179.88 192.66 188.5 184.92 184.43 177.18 188.5 178.66 179.88 172.4 173.78 181.05 172.52 184.92 164.68"/><path class="cls-12" d="M191.12,173.78l4.47.64-5.28,5.15,1.24,7.27L185,183.41l-6.52,3.43Z"/><polygon class="cls-14" points="225.72 164.68 229.59 172.52 238.24 173.78 231.98 179.88 233.46 188.5 225.72 184.43 217.98 188.5 219.46 179.88 213.19 173.78 221.85 172.52 225.72 164.68"/><path class="cls-12" d="M231.91,173.78l4.47.64-5.28,5.15,1.25,7.27-6.53-3.43-6.53,3.43Z"/><polygon class="cls-14" points="266.51 164.68 270.38 172.52 279.04 173.78 272.77 179.88 274.25 188.5 266.51 184.43 258.77 188.5 260.25 179.88 253.99 173.78 262.64 172.52 266.51 164.68"/><path class="cls-12" d="M272.7,173.78l4.48.64q-2.64,2.58-5.29,5.15l1.25,7.27-6.53-3.43-6.53,3.43Z"/><polygon class="cls-14" points="307.31 164.68 311.18 172.52 319.83 173.78 313.57 179.88 315.05 188.5 307.31 184.43 299.57 188.5 301.05 179.88 294.78 173.78 303.44 172.52 307.31 164.68"/><path class="cls-12" d="M313.5,173.78l4.47.64-5.28,5.15,1.25,7.27-6.53-3.43-6.53,3.43Z"/><polygon class="cls-14" points="348.1 164.68 351.97 172.52 360.63 173.78 354.36 179.88 355.84 188.5 348.1 184.43 340.36 188.5 341.84 179.88 335.58 173.78 344.23 172.52 348.1 164.68"/><path class="cls-12" d="M354.29,173.78l4.48.64-5.29,5.15,1.25,7.27-6.53-3.43-6.53,3.43Z"/></svg>