<svg id="Layer_1" data-name="Layer 1" xmlns="http://www.w3.org/2000/svg" viewBox="0 0 545.14 209.25"><defs><style>.cls-1{fill:#ffea04;}.cls-1,.cls-2,.cls-3,.cls-4,.cls-5{stroke:#231f20;stroke-miterlimit:10;}.cls-1,.cls-2,.cls-3,.cls-4{stroke-width:4.06px;}.cls-2{fill:#ff4500;}.cls-3{fill:#aadb1e;}.cls-4{fill:#f70000;}.cls-5{fill:#ff1500;stroke-width:1.89px;}.cls-6{fill:#cd0000;}</style></defs><path class="cls-1" d="M57.27,79.44V149H29V79.44H7.42v-28H78.83v28Z"/><path class="cls-2" d="M116.44,51.4V81.22q6.61-4.93,13.22-4.93,10,0,15.88,7.44t5.88,20.09V149h-26v-37.7q0-4.58-.94-6.15c-.62-1-1.84-1.57-3.65-1.57q-4.38,0-4.38,6.65V149h-26V51.4Z"/><path class="cls-3" d="M237.85,117.7H198.42a20.22,20.22,0,0,1-.9-5.65,20.45,20.45,0,0,1,1.25-7H212q-1.39-7.94-8.69-7.94a9.37,9.37,0,0,0-7.93,4.26q-3.06,4.26-3.06,10.91,0,6.93,3,11.22a9,9,0,0,0,7.75,4.3q3.9,0,7.51-4l14.81,18.31a35.75,35.75,0,0,1-23,8.37,35,35,0,0,1-25.94-10.66q-10.5-10.65-10.5-26.39A36.33,36.33,0,0,1,176.49,87a35.06,35.06,0,0,1,26-10.8A33.92,33.92,0,0,1,227.87,86.7q10.26,10.55,10.25,26Q238.12,114.26,237.85,117.7Z"/><path class="cls-1" d="M277.76,77.72V149h-26V77.72ZM264.83,45.89A12.55,12.55,0,0,1,274,49.72a12.9,12.9,0,0,1,.21,18.2,14,14,0,0,1-18.71,0,12.9,12.9,0,0,1,.21-18.2A12.57,12.57,0,0,1,264.83,45.89Z"/><path class="cls-4" d="M334.22,77v28.61a10.11,10.11,0,0,0-4.94-1.57q-7.08,0-7.09,11.16V149h-26v-39q0-15.45,8.2-24.64t21.9-9.19A52.26,52.26,0,0,1,334.22,77Z"/><path class="cls-2" d="M421.9,77.72V149h-26V77.72ZM409,45.89a12.55,12.55,0,0,1,9.14,3.83,12.9,12.9,0,0,1,.21,18.2,14,14,0,0,1-18.7,0,12.9,12.9,0,0,1,.21-18.2A12.55,12.55,0,0,1,409,45.89Z"/><path class="cls-3" d="M518.56,77.69h11.68l-.45,27.37-11.23.88a21.69,21.69,0,0,0,2.6,11.73,20.9,20.9,0,0,0,9.57,8.88V149c-1.35.05-2.35.07-3,.07a35.37,35.37,0,0,1-25.84-11.32,37,37,0,0,1-3.37-4.34c-5.1-8-3.24-20.18-2.81-22.73C495.83,90.58,518.56,77.69,518.56,77.69Z"/><path class="cls-4" d="M537.72,68.24a127.51,127.51,0,0,1-3.22,23.37,124.7,124.7,0,0,1-4.27,14.33,123.22,123.22,0,0,1-19.51,2.86,125.19,125.19,0,0,1-33.82-2.4,4.38,4.38,0,0,0-.66.55c-1.37,1.41-2.23,4.19-2.61,8.33q-1.8,20.68-15.57,29.19-7.31,4.42-20.72,4.43h-.77V149H377.68q-15.44,0-24.06-9.25T345,114.05c.56-15.86.61-32.44,0-49.68q-.27-7.44-.68-14.69a68.54,68.54,0,0,0,8,1.82,65.44,65.44,0,0,0,20.87-.1c-.78,7.72-1.39,15.87-1.74,24.39-.52,12.34-.46,23.94,0,34.72a11.21,11.21,0,0,0,3.86,7.94,10.13,10.13,0,0,0,6.14,2.37v-.2h52.24v0h1.18q6.25,0,8.93-2.68t3.1-9.41q.56-11,2-15.37a22.2,22.2,0,0,1,5.8-8.8q7.56-7.57,20.92-7.64h0c8.41-.22,15.47-.6,20.72-.93,10.44-.67,15.79-1,22.19-2.21A113.85,113.85,0,0,0,537.72,68.24Z"/><path class="cls-3" d="M511.63,42.64a12.65,12.65,0,0,1,9.23,3.83,12.4,12.4,0,0,1,3.86,9.11,12,12,0,0,1-3.83,9,12.87,12.87,0,0,1-9.26,3.69,12.64,12.64,0,0,1-9.27-3.58,12.27,12.27,0,0,1-3.65-9.14,12.35,12.35,0,0,1,3.78-9.13A12.51,12.51,0,0,1,511.63,42.64Z"/><path class="cls-4" d="M360.64,17a12.64,12.64,0,0,1,9.23,3.82A12.42,12.42,0,0,1,373.73,30a12,12,0,0,1-3.83,9,12.87,12.87,0,0,1-9.26,3.69,12.64,12.64,0,0,1-9.27-3.58,12.28,12.28,0,0,1-3.65-9.14A12.84,12.84,0,0,1,360.64,17Z"/><polygon class="cls-5" points="183.24 164.68 187.11 172.52 195.76 173.78 189.5 179.88 190.98 188.5 183.24 184.43 175.5 188.5 176.98 179.88 170.71 173.78 179.37 172.52 183.24 164.68"/><path class="cls-6" d="M189.43,173.77l4.47.65-5.28,5.15,1.25,7.27-6.53-3.43-6.53,3.43Q183.13,180.32,189.43,173.77Z"/><polygon class="cls-5" points="224.03 164.68 227.9 172.52 236.56 173.78 230.29 179.88 231.77 188.5 224.03 184.43 216.29 188.5 217.77 179.88 211.51 173.78 220.16 172.52 224.03 164.68"/><path class="cls-6" d="M230.22,173.77l4.48.65-5.28,5.15,1.24,7.27-6.53-3.43-6.53,3.43Q223.92,180.32,230.22,173.77Z"/><polygon class="cls-5" points="264.83 164.68 268.7 172.52 277.35 173.78 271.09 179.88 272.57 188.5 264.83 184.43 257.09 188.5 258.56 179.88 252.3 173.78 260.96 172.52 264.83 164.68"/><path class="cls-6" d="M271,173.77l4.47.65-5.28,5.15,1.25,7.27-6.53-3.43-6.53,3.43Q264.72,180.32,271,173.77Z"/><polygon class="cls-5" points="305.62 164.68 309.49 172.52 318.14 173.78 311.88 179.88 313.36 188.5 305.62 184.43 297.88 188.5 299.36 179.88 293.1 173.78 301.75 172.52 305.62 164.68"/><path class="cls-6" d="M311.81,173.77l4.48.65q-2.64,2.58-5.29,5.15l1.25,7.27-6.53-3.43-6.53,3.43Q305.51,180.32,311.81,173.77Z"/><polygon class="cls-5" points="346.42 164.68 350.29 172.52 358.94 173.78 352.68 179.88 354.16 188.5 346.42 184.43 338.68 188.5 340.15 179.88 333.89 173.78 342.55 172.52 346.42 164.68"/><path class="cls-6" d="M352.61,173.77l4.47.65-5.28,5.15,1.25,7.27-6.53-3.43L340,186.84Q346.3,180.32,352.61,173.77Z"/></svg>